<svg xmlns="http://www.w3.org/2000/svg" xmlns:xlink="http://www.w3.org/1999/xlink" width="500" zoomAndPan="magnify" viewBox="0 0 375 374.999991" height="500" preserveAspectRatio="xMidYMid meet" version="1.0"><defs><g/><clipPath id="23ac3dbfc4"><path d="M 17.878906 17.878906 L 356.878906 17.878906 L 356.878906 356.878906 L 17.878906 356.878906 Z M 17.878906 17.878906 " clip-rule="nonzero"/></clipPath><clipPath id="ac45037b72"><path d="M 69.71875 41.097656 L 100.65625 41.097656 L 100.65625 72.039062 L 69.71875 72.039062 Z M 69.71875 41.097656 " clip-rule="nonzero"/></clipPath><clipPath id="32b5896477"><path d="M 85.1875 41.097656 C 76.644531 41.097656 69.71875 48.023438 69.71875 56.570312 C 69.71875 65.113281 76.644531 72.039062 85.1875 72.039062 C 93.730469 72.039062 100.65625 65.113281 100.65625 56.570312 C 100.65625 48.023438 93.730469 41.097656 85.1875 41.097656 Z M 85.1875 41.097656 " clip-rule="nonzero"/></clipPath></defs><g fill="#000000" fill-opacity="1"><g transform="translate(42.37927, 232.874985)"><g><path d="M 88.671875 -58.609375 C 92.796875 -51.484375 93.6875 -43.082031 91.34375 -33.40625 C 89.675781 -26.945312 87.453125 -21.179688 84.671875 -16.109375 C 81.890625 -11.046875 78.910156 -7.175781 75.734375 -4.5 C 72.554688 -1.832031 69.46875 -0.78125 66.46875 -1.34375 C 65.238281 -1.675781 63.898438 -2.507812 62.453125 -3.84375 C 61.003906 -5.175781 59.890625 -7.539062 59.109375 -10.9375 C 58.335938 -14.332031 58.285156 -19.257812 58.953125 -25.71875 C 56.941406 -23.488281 54.6875 -21.148438 52.1875 -18.703125 C 49.6875 -16.253906 47.039062 -13.804688 44.25 -11.359375 C 42.914062 -10.242188 41.492188 -9.269531 39.984375 -8.4375 C 38.484375 -7.601562 37.015625 -7.519531 35.578125 -8.1875 C 35.015625 -8.519531 34.484375 -9.128906 33.984375 -10.015625 C 33.484375 -10.910156 33.398438 -12.25 33.734375 -14.03125 C 33.953125 -16.144531 34.867188 -18.953125 36.484375 -22.453125 C 38.097656 -25.960938 40.128906 -29.554688 42.578125 -33.234375 C 45.035156 -36.910156 47.738281 -40.140625 50.6875 -42.921875 C 53.632812 -45.703125 56.613281 -47.425781 59.625 -48.09375 C 61.175781 -48.425781 62.953125 -48.3125 64.953125 -47.75 C 66.960938 -47.195312 68.859375 -45.472656 70.640625 -42.578125 C 71.535156 -41.128906 71.257812 -39.960938 69.8125 -39.078125 C 68.363281 -38.179688 67.191406 -38.457031 66.296875 -39.90625 C 64.398438 -42.914062 62.007812 -43.804688 59.125 -42.578125 C 56.894531 -41.578125 54.640625 -39.820312 52.359375 -37.3125 C 50.078125 -34.8125 47.960938 -32.03125 46.015625 -28.96875 C 44.066406 -25.90625 42.453125 -22.984375 41.171875 -20.203125 C 39.890625 -17.421875 39.082031 -15.25 38.75 -13.6875 C 39.414062 -14.019531 40.082031 -14.523438 40.75 -15.203125 C 43.976562 -17.984375 47.007812 -20.820312 49.84375 -23.71875 C 52.6875 -26.613281 55.164062 -29.171875 57.28125 -31.390625 C 57.945312 -32.171875 58.585938 -32.835938 59.203125 -33.390625 C 59.816406 -33.953125 60.34375 -34.507812 60.78125 -35.0625 C 61.675781 -35.957031 62.679688 -36.128906 63.796875 -35.578125 C 64.910156 -34.898438 65.351562 -33.953125 65.125 -32.734375 C 64.007812 -26.160156 63.535156 -20.976562 63.703125 -17.1875 C 63.878906 -13.40625 64.382812 -10.707031 65.21875 -9.09375 C 66.050781 -7.488281 66.800781 -6.628906 67.46875 -6.515625 C 69.03125 -6.179688 70.976562 -7.097656 73.3125 -9.265625 C 75.644531 -11.441406 78.007812 -14.695312 80.40625 -19.03125 C 82.800781 -23.375 84.78125 -28.609375 86.34375 -34.734375 C 87.34375 -39.078125 87.535156 -43.445312 86.921875 -47.84375 C 86.304688 -52.238281 84.578125 -56.160156 81.734375 -59.609375 C 78.898438 -63.066406 74.8125 -65.460938 69.46875 -66.796875 C 65.570312 -67.796875 61.0625 -67.796875 55.9375 -66.796875 C 50.820312 -65.796875 45.644531 -63.515625 40.40625 -59.953125 C 35.175781 -56.390625 30.304688 -51.15625 25.796875 -44.25 C 21.285156 -37.351562 17.695312 -28.503906 15.03125 -17.703125 C 11.800781 -5.234375 13.523438 3.28125 20.203125 7.84375 C 22.765625 9.519531 25.851562 10.523438 29.46875 10.859375 C 33.09375 11.191406 36.820312 10.828125 40.65625 9.765625 C 44.5 8.710938 48.035156 7.015625 51.265625 4.671875 C 52.710938 3.671875 53.9375 3.835938 54.9375 5.171875 C 55.832031 6.617188 55.613281 7.84375 54.28125 8.84375 C 51.269531 10.96875 47.757812 12.722656 43.75 14.109375 C 39.738281 15.503906 35.734375 16.203125 31.734375 16.203125 C 29.054688 16.203125 26.492188 15.863281 24.046875 15.1875 C 21.597656 14.519531 19.375 13.46875 17.375 12.03125 C 15.363281 10.6875 13.492188 8.757812 11.765625 6.25 C 10.046875 3.75 8.9375 0.441406 8.4375 -3.671875 C 7.9375 -7.796875 8.460938 -12.914062 10.015625 -19.03125 C 12.691406 -29.5 16.285156 -38.40625 20.796875 -45.75 C 25.304688 -53.101562 30.398438 -58.921875 36.078125 -63.203125 C 41.753906 -67.492188 47.566406 -70.332031 53.515625 -71.71875 C 59.472656 -73.113281 65.238281 -73.144531 70.8125 -71.8125 C 78.820312 -69.800781 84.773438 -65.398438 88.671875 -58.609375 Z M 88.671875 -58.609375 "/></g></g></g><g fill="#000000" fill-opacity="1"><g transform="translate(143.242545, 232.874985)"><g><path d="M 69.96875 -37.078125 C 70.75 -36.742188 71.28125 -36.15625 71.5625 -35.3125 C 71.84375 -34.476562 71.8125 -33.675781 71.46875 -32.90625 C 69.351562 -28.5625 67.039062 -24.21875 64.53125 -19.875 C 62.03125 -15.53125 59.414062 -11.546875 56.6875 -7.921875 C 53.96875 -4.304688 51.160156 -1.414062 48.265625 0.75 C 45.367188 2.925781 42.472656 4.015625 39.578125 4.015625 C 39.023438 4.015625 38.410156 3.957031 37.734375 3.84375 C 30.273438 2.394531 25.65625 -7.625 23.875 -26.21875 C 21.988281 -23.65625 19.789062 -20.785156 17.28125 -17.609375 C 14.78125 -14.441406 12.140625 -11.300781 9.359375 -8.1875 C 8.910156 -7.738281 8.179688 -7.039062 7.171875 -6.09375 C 6.171875 -5.144531 5.003906 -4.390625 3.671875 -3.828125 C 2.335938 -3.273438 1.003906 -3.335938 -0.328125 -4.015625 C -3.003906 -5.015625 -4.285156 -7.90625 -4.171875 -12.6875 C -4.171875 -15.46875 -3.640625 -18.914062 -2.578125 -23.03125 C -1.523438 -27.15625 -0.0234375 -31.304688 1.921875 -35.484375 C 3.867188 -39.660156 6.148438 -43.363281 8.765625 -46.59375 C 11.378906 -49.820312 14.300781 -51.992188 17.53125 -53.109375 C 19.539062 -53.890625 21.988281 -54.023438 24.875 -53.515625 C 27.769531 -53.015625 30.78125 -50.929688 33.90625 -47.265625 C 34.457031 -46.597656 34.703125 -45.816406 34.640625 -44.921875 C 34.585938 -44.035156 34.226562 -43.3125 33.5625 -42.75 C 32.894531 -42.195312 32.113281 -41.945312 31.21875 -42 C 30.332031 -42.050781 29.613281 -42.414062 29.0625 -43.09375 C 26.382812 -46.207031 24.070312 -47.679688 22.125 -47.515625 C 20.175781 -47.347656 18.535156 -46.765625 17.203125 -45.765625 C 14.753906 -43.984375 12.523438 -41.421875 10.515625 -38.078125 C 8.515625 -34.734375 6.84375 -31.222656 5.5 -27.546875 C 4.164062 -23.878906 3.222656 -20.457031 2.671875 -17.28125 C 2.117188 -14.113281 1.953125 -11.804688 2.171875 -10.359375 C 2.503906 -10.578125 2.863281 -10.851562 3.25 -11.1875 C 3.644531 -11.519531 4.066406 -11.96875 4.515625 -12.53125 C 7.847656 -16.195312 10.90625 -19.835938 13.6875 -23.453125 C 16.476562 -27.078125 18.875 -30.28125 20.875 -33.0625 C 21.425781 -33.84375 21.953125 -34.59375 22.453125 -35.3125 C 22.960938 -36.039062 23.4375 -36.679688 23.875 -37.234375 C 24.769531 -38.347656 25.941406 -38.6875 27.390625 -38.25 C 28.835938 -37.90625 29.613281 -36.957031 29.71875 -35.40625 C 30.0625 -28.164062 30.648438 -22.347656 31.484375 -17.953125 C 32.316406 -13.554688 33.234375 -10.269531 34.234375 -8.09375 C 35.234375 -5.925781 36.175781 -4.453125 37.0625 -3.671875 C 37.957031 -2.890625 38.628906 -2.5 39.078125 -2.5 C 41.191406 -2.0625 44.585938 -4.234375 49.265625 -9.015625 C 53.941406 -13.804688 59.394531 -22.660156 65.625 -35.578125 C 66.070312 -36.460938 66.710938 -37.039062 67.546875 -37.3125 C 68.378906 -37.59375 69.1875 -37.515625 69.96875 -37.078125 Z M 69.96875 -37.078125 "/></g></g></g><g fill="#000000" fill-opacity="1"><g transform="translate(205.363634, 232.874985)"><g><path d="M 71.984375 -37.578125 C 72.648438 -37.128906 73.09375 -36.457031 73.3125 -35.5625 C 73.53125 -34.675781 73.421875 -33.898438 72.984375 -33.234375 C 70.191406 -28.671875 66.597656 -23.882812 62.203125 -18.875 C 57.804688 -13.863281 53.101562 -9.15625 48.09375 -4.75 C 43.082031 -0.351562 38.070312 3.234375 33.0625 6.015625 C 28.050781 8.796875 23.539062 10.1875 19.53125 10.1875 C 18.644531 10.1875 17.8125 10.128906 17.03125 10.015625 C 15.25 9.679688 13.351562 8.707031 11.34375 7.09375 C 9.34375 5.476562 7.957031 2.613281 7.1875 -1.5 C 6.957031 -2.613281 7.234375 -3.613281 8.015625 -4.5 C 8.796875 -5.394531 10.019531 -6.566406 11.6875 -8.015625 C 13.019531 -9.128906 14.492188 -10.460938 16.109375 -12.015625 C 17.722656 -13.578125 19.253906 -15.25 20.703125 -17.03125 C 22.929688 -20.039062 24.378906 -22.796875 25.046875 -25.296875 C 25.710938 -27.804688 25.9375 -29.5625 25.71875 -30.5625 C 25.164062 -30.34375 24.050781 -29.507812 22.375 -28.0625 C 20.707031 -26.613281 18.484375 -23.71875 15.703125 -19.375 C 12.359375 -14.363281 9.378906 -8.765625 6.765625 -2.578125 C 4.148438 3.597656 1.726562 9.910156 -0.5 16.359375 C -2.726562 22.816406 -4.734375 29 -6.515625 34.90625 L -7.34375 37.234375 C -7.789062 38.679688 -8.796875 39.40625 -10.359375 39.40625 C -10.578125 39.40625 -10.742188 39.40625 -10.859375 39.40625 C -12.742188 39.070312 -13.632812 37.960938 -13.53125 36.078125 C -13.53125 35.179688 -13.109375 32.644531 -12.265625 28.46875 C -11.429688 24.300781 -10.316406 18.957031 -8.921875 12.4375 C -7.535156 5.925781 -5.976562 -1.304688 -4.25 -9.265625 C -2.53125 -17.222656 -0.695312 -25.40625 1.25 -33.8125 C 3.195312 -42.21875 5.085938 -50.457031 6.921875 -58.53125 C 8.765625 -66.601562 10.46875 -74.035156 12.03125 -80.828125 C 12.132812 -81.046875 12.1875 -81.320312 12.1875 -81.65625 C 14.195312 -90.007812 15.753906 -96.523438 16.859375 -101.203125 C 19.421875 -111.441406 22.257812 -120.765625 25.375 -129.171875 C 28.5 -137.578125 31.59375 -144.3125 34.65625 -149.375 C 37.71875 -154.445312 40.472656 -157.257812 42.921875 -157.8125 C 44.703125 -158.144531 46.148438 -157.535156 47.265625 -155.984375 C 48.816406 -153.867188 48.675781 -149.300781 46.84375 -142.28125 C 45.007812 -135.269531 41.640625 -126.363281 36.734375 -115.5625 C 31.835938 -104.757812 25.71875 -92.679688 18.375 -79.328125 C 16.695312 -72.421875 14.910156 -64.875 13.015625 -56.6875 C 11.128906 -48.507812 9.238281 -40.1875 7.34375 -31.71875 C 5.457031 -23.257812 3.675781 -15.191406 2 -7.515625 C 3.226562 -10.179688 4.535156 -12.820312 5.921875 -15.4375 C 7.316406 -18.0625 8.738281 -20.539062 10.1875 -22.875 C 16.53125 -32.675781 21.984375 -37.410156 26.546875 -37.078125 C 28.890625 -36.847656 30.503906 -35.625 31.390625 -33.40625 C 32.503906 -31.0625 32.503906 -27.96875 31.390625 -24.125 C 30.273438 -20.289062 28.382812 -16.59375 25.71875 -13.03125 C 24.15625 -11.019531 22.484375 -9.179688 20.703125 -7.515625 C 18.921875 -5.847656 17.304688 -4.398438 15.859375 -3.171875 C 15.523438 -2.835938 15.160156 -2.503906 14.765625 -2.171875 C 14.378906 -1.835938 14.078125 -1.5625 13.859375 -1.34375 C 14.304688 0.550781 14.972656 1.832031 15.859375 2.5 C 16.753906 3.164062 17.535156 3.554688 18.203125 3.671875 C 20.648438 4.117188 23.90625 3.367188 27.96875 1.421875 C 32.03125 -0.523438 36.425781 -3.390625 41.15625 -7.171875 C 45.894531 -10.960938 50.601562 -15.390625 55.28125 -20.453125 C 59.957031 -25.523438 64.019531 -30.898438 67.46875 -36.578125 C 67.914062 -37.347656 68.582031 -37.816406 69.46875 -37.984375 C 70.363281 -38.160156 71.203125 -38.023438 71.984375 -37.578125 Z M 41.578125 -148.46875 C 39.691406 -145.675781 37.160156 -140.742188 33.984375 -133.671875 C 30.804688 -126.609375 27.660156 -117.007812 24.546875 -104.875 C 30.117188 -116.125 34.210938 -125.363281 36.828125 -132.59375 C 39.441406 -139.832031 41.023438 -145.125 41.578125 -148.46875 Z M 41.578125 -148.46875 "/></g></g></g><g fill="#000000" fill-opacity="1"><g transform="translate(270.490583, 232.874985)"><g><path d="M 69.96875 -37.078125 C 70.75 -36.742188 71.28125 -36.15625 71.5625 -35.3125 C 71.84375 -34.476562 71.8125 -33.675781 71.46875 -32.90625 C 69.351562 -28.5625 67.039062 -24.21875 64.53125 -19.875 C 62.03125 -15.53125 59.414062 -11.546875 56.6875 -7.921875 C 53.96875 -4.304688 51.160156 -1.414062 48.265625 0.75 C 45.367188 2.925781 42.472656 4.015625 39.578125 4.015625 C 39.023438 4.015625 38.410156 3.957031 37.734375 3.84375 C 30.273438 2.394531 25.65625 -7.625 23.875 -26.21875 C 21.988281 -23.65625 19.789062 -20.785156 17.28125 -17.609375 C 14.78125 -14.441406 12.140625 -11.300781 9.359375 -8.1875 C 8.910156 -7.738281 8.179688 -7.039062 7.171875 -6.09375 C 6.171875 -5.144531 5.003906 -4.390625 3.671875 -3.828125 C 2.335938 -3.273438 1.003906 -3.335938 -0.328125 -4.015625 C -3.003906 -5.015625 -4.285156 -7.90625 -4.171875 -12.6875 C -4.171875 -15.46875 -3.640625 -18.914062 -2.578125 -23.03125 C -1.523438 -27.15625 -0.0234375 -31.304688 1.921875 -35.484375 C 3.867188 -39.660156 6.148438 -43.363281 8.765625 -46.59375 C 11.378906 -49.820312 14.300781 -51.992188 17.53125 -53.109375 C 19.539062 -53.890625 21.988281 -54.023438 24.875 -53.515625 C 27.769531 -53.015625 30.78125 -50.929688 33.90625 -47.265625 C 34.457031 -46.597656 34.703125 -45.816406 34.640625 -44.921875 C 34.585938 -44.035156 34.226562 -43.3125 33.5625 -42.75 C 32.894531 -42.195312 32.113281 -41.945312 31.21875 -42 C 30.332031 -42.050781 29.613281 -42.414062 29.0625 -43.09375 C 26.382812 -46.207031 24.070312 -47.679688 22.125 -47.515625 C 20.175781 -47.347656 18.535156 -46.765625 17.203125 -45.765625 C 14.753906 -43.984375 12.523438 -41.421875 10.515625 -38.078125 C 8.515625 -34.734375 6.84375 -31.222656 5.5 -27.546875 C 4.164062 -23.878906 3.222656 -20.457031 2.671875 -17.28125 C 2.117188 -14.113281 1.953125 -11.804688 2.171875 -10.359375 C 2.503906 -10.578125 2.863281 -10.851562 3.25 -11.1875 C 3.644531 -11.519531 4.066406 -11.96875 4.515625 -12.53125 C 7.847656 -16.195312 10.90625 -19.835938 13.6875 -23.453125 C 16.476562 -27.078125 18.875 -30.28125 20.875 -33.0625 C 21.425781 -33.84375 21.953125 -34.59375 22.453125 -35.3125 C 22.960938 -36.039062 23.4375 -36.679688 23.875 -37.234375 C 24.769531 -38.347656 25.941406 -38.6875 27.390625 -38.25 C 28.835938 -37.90625 29.613281 -36.957031 29.71875 -35.40625 C 30.0625 -28.164062 30.648438 -22.347656 31.484375 -17.953125 C 32.316406 -13.554688 33.234375 -10.269531 34.234375 -8.09375 C 35.234375 -5.925781 36.175781 -4.453125 37.0625 -3.671875 C 37.957031 -2.890625 38.628906 -2.5 39.078125 -2.5 C 41.191406 -2.0625 44.585938 -4.234375 49.265625 -9.015625 C 53.941406 -13.804688 59.394531 -22.660156 65.625 -35.578125 C 66.070312 -36.460938 66.710938 -37.039062 67.546875 -37.3125 C 68.378906 -37.59375 69.1875 -37.515625 69.96875 -37.078125 Z M 69.96875 -37.078125 "/></g></g></g><g clip-path="url(#23ac3dbfc4)"><path fill="#000000" d="M 187.378906 356.878906 C 93.734375 356.878906 17.878906 280.5 17.878906 187.378906 C 17.878906 94.257812 93.734375 17.878906 187.378906 17.878906 C 281.023438 17.878906 356.878906 93.734375 356.878906 187.378906 C 356.878906 281.023438 280.5 356.878906 187.378906 356.878906 Z M 187.378906 28.34375 C 99.492188 28.34375 28.34375 99.492188 28.34375 187.378906 C 28.34375 275.269531 99.492188 346.417969 187.378906 346.417969 C 275.269531 346.417969 346.417969 275.269531 346.417969 187.378906 C 346.417969 99.492188 274.746094 28.34375 187.378906 28.34375 Z M 187.378906 28.34375 " fill-opacity="1" fill-rule="nonzero"/></g><g clip-path="url(#ac45037b72)"><g clip-path="url(#32b5896477)"><path fill="#000000" d="M 69.71875 41.097656 L 100.65625 41.097656 L 100.65625 72.039062 L 69.71875 72.039062 Z M 69.71875 41.097656 " fill-opacity="1" fill-rule="nonzero"/></g></g></svg>