<svg xmlns="http://www.w3.org/2000/svg" xmlns:xlink="http://www.w3.org/1999/xlink" width="500" zoomAndPan="magnify" viewBox="0 0 375 374.999991" height="500" preserveAspectRatio="xMidYMid meet" version="1.0"><defs><g/></defs><g fill="#000000" fill-opacity="1"><g transform="translate(37.500002, 205.658137)"><g><path d="M 88.5625 -58.546875 C 92.675781 -51.429688 93.566406 -43.035156 91.234375 -33.359375 C 89.566406 -26.910156 87.34375 -21.15625 84.5625 -16.09375 C 81.78125 -11.03125 78.804688 -7.164062 75.640625 -4.5 C 72.472656 -1.832031 69.390625 -0.773438 66.390625 -1.328125 C 65.160156 -1.660156 63.820312 -2.492188 62.375 -3.828125 C 60.9375 -5.171875 59.828125 -7.535156 59.046875 -10.921875 C 58.265625 -14.316406 58.207031 -19.238281 58.875 -25.6875 C 56.875 -23.457031 54.625 -21.117188 52.125 -18.671875 C 49.625 -16.234375 46.984375 -13.789062 44.203125 -11.34375 C 42.867188 -10.226562 41.453125 -9.253906 39.953125 -8.421875 C 38.453125 -7.585938 36.976562 -7.503906 35.53125 -8.171875 C 34.96875 -8.503906 34.4375 -9.113281 33.9375 -10 C 33.4375 -10.894531 33.351562 -12.234375 33.6875 -14.015625 C 33.914062 -16.128906 34.832031 -18.9375 36.4375 -22.4375 C 38.050781 -25.9375 40.082031 -29.519531 42.53125 -33.1875 C 44.976562 -36.863281 47.675781 -40.085938 50.625 -42.859375 C 53.570312 -45.640625 56.546875 -47.363281 59.546875 -48.03125 C 61.097656 -48.363281 62.875 -48.253906 64.875 -47.703125 C 66.882812 -47.148438 68.78125 -45.425781 70.5625 -42.53125 C 71.445312 -41.082031 71.164062 -39.914062 69.71875 -39.03125 C 68.269531 -38.144531 67.101562 -38.421875 66.21875 -39.859375 C 64.332031 -42.867188 61.941406 -43.757812 59.046875 -42.53125 C 56.816406 -41.53125 54.5625 -39.78125 52.28125 -37.28125 C 50.007812 -34.78125 47.898438 -32 45.953125 -28.9375 C 44.003906 -25.882812 42.390625 -22.96875 41.109375 -20.1875 C 39.835938 -17.40625 39.035156 -15.234375 38.703125 -13.671875 C 39.367188 -14.003906 40.035156 -14.503906 40.703125 -15.171875 C 43.921875 -17.953125 46.945312 -20.785156 49.78125 -23.671875 C 52.625 -26.566406 55.101562 -29.128906 57.21875 -31.359375 C 57.882812 -32.140625 58.519531 -32.804688 59.125 -33.359375 C 59.738281 -33.910156 60.269531 -34.46875 60.71875 -35.03125 C 61.601562 -35.914062 62.601562 -36.082031 63.71875 -35.53125 C 64.832031 -34.863281 65.273438 -33.914062 65.046875 -32.6875 C 63.941406 -26.125 63.472656 -20.953125 63.640625 -17.171875 C 63.804688 -13.398438 64.304688 -10.707031 65.140625 -9.09375 C 65.972656 -7.476562 66.722656 -6.613281 67.390625 -6.5 C 68.941406 -6.164062 70.882812 -7.082031 73.21875 -9.25 C 75.5625 -11.425781 77.925781 -14.679688 80.3125 -19.015625 C 82.707031 -23.347656 84.679688 -28.570312 86.234375 -34.6875 C 87.234375 -39.03125 87.425781 -43.394531 86.8125 -47.78125 C 86.207031 -52.175781 84.484375 -56.097656 81.640625 -59.546875 C 78.804688 -62.992188 74.722656 -65.382812 69.390625 -66.71875 C 65.492188 -67.71875 60.988281 -67.71875 55.875 -66.71875 C 50.757812 -65.71875 45.585938 -63.4375 40.359375 -59.875 C 35.140625 -56.320312 30.273438 -51.097656 25.765625 -44.203125 C 21.265625 -37.304688 17.679688 -28.46875 15.015625 -17.6875 C 11.785156 -5.226562 13.507812 3.28125 20.1875 7.84375 C 22.738281 9.507812 25.820312 10.507812 29.4375 10.84375 C 33.050781 11.175781 36.773438 10.8125 40.609375 9.75 C 44.453125 8.695312 47.984375 7.003906 51.203125 4.671875 C 52.648438 3.671875 53.875 3.835938 54.875 5.171875 C 55.757812 6.617188 55.535156 7.84375 54.203125 8.84375 C 51.203125 10.957031 47.703125 12.707031 43.703125 14.09375 C 39.703125 15.476562 35.695312 16.171875 31.6875 16.171875 C 29.019531 16.171875 26.460938 15.835938 24.015625 15.171875 C 21.566406 14.503906 19.34375 13.453125 17.34375 12.015625 C 15.34375 10.679688 13.476562 8.757812 11.75 6.25 C 10.03125 3.75 8.921875 0.441406 8.421875 -3.671875 C 7.921875 -7.785156 8.453125 -12.898438 10.015625 -19.015625 C 12.679688 -29.460938 16.265625 -38.359375 20.765625 -45.703125 C 25.265625 -53.046875 30.347656 -58.851562 36.015625 -63.125 C 41.691406 -67.40625 47.503906 -70.238281 53.453125 -71.625 C 59.398438 -73.019531 65.15625 -73.050781 70.71875 -71.71875 C 78.726562 -69.71875 84.675781 -65.328125 88.5625 -58.546875 Z M 88.5625 -58.546875 "/></g></g></g><g fill="#000000" fill-opacity="1"><g transform="translate(138.240419, 205.658137)"><g><path d="M 69.890625 -37.03125 C 70.671875 -36.695312 71.195312 -36.113281 71.46875 -35.28125 C 71.75 -34.445312 71.722656 -33.640625 71.390625 -32.859375 C 69.273438 -28.523438 66.96875 -24.1875 64.46875 -19.84375 C 61.96875 -15.507812 59.351562 -11.535156 56.625 -7.921875 C 53.90625 -4.304688 51.097656 -1.414062 48.203125 0.75 C 45.316406 2.914062 42.425781 4 39.53125 4 C 38.976562 4 38.367188 3.945312 37.703125 3.84375 C 30.242188 2.394531 25.628906 -7.613281 23.859375 -26.1875 C 21.960938 -23.625 19.765625 -20.757812 17.265625 -17.59375 C 14.765625 -14.425781 12.125 -11.285156 9.34375 -8.171875 C 8.894531 -7.722656 8.171875 -7.023438 7.171875 -6.078125 C 6.171875 -5.140625 5.003906 -4.390625 3.671875 -3.828125 C 2.335938 -3.273438 1.003906 -3.332031 -0.328125 -4 C -3.003906 -5 -4.285156 -7.890625 -4.171875 -12.671875 C -4.171875 -15.453125 -3.640625 -18.898438 -2.578125 -23.015625 C -1.523438 -27.128906 -0.0234375 -31.269531 1.921875 -35.4375 C 3.867188 -39.613281 6.144531 -43.3125 8.75 -46.53125 C 11.363281 -49.757812 14.285156 -51.929688 17.515625 -53.046875 C 19.515625 -53.816406 21.957031 -53.953125 24.84375 -53.453125 C 27.738281 -52.953125 30.742188 -50.867188 33.859375 -47.203125 C 34.410156 -46.535156 34.660156 -45.753906 34.609375 -44.859375 C 34.554688 -43.972656 34.195312 -43.253906 33.53125 -42.703125 C 32.863281 -42.140625 32.082031 -41.882812 31.1875 -41.9375 C 30.300781 -42 29.578125 -42.363281 29.015625 -43.03125 C 26.347656 -46.144531 24.039062 -47.617188 22.09375 -47.453125 C 20.15625 -47.285156 18.519531 -46.703125 17.1875 -45.703125 C 14.738281 -43.921875 12.507812 -41.363281 10.5 -38.03125 C 8.5 -34.695312 6.832031 -31.191406 5.5 -27.515625 C 4.164062 -23.847656 3.21875 -20.429688 2.65625 -17.265625 C 2.101562 -14.097656 1.941406 -11.789062 2.171875 -10.34375 C 2.503906 -10.5625 2.863281 -10.835938 3.25 -11.171875 C 3.644531 -11.503906 4.0625 -11.953125 4.5 -12.515625 C 7.832031 -16.179688 10.890625 -19.820312 13.671875 -23.4375 C 16.453125 -27.050781 18.84375 -30.25 20.84375 -33.03125 C 21.40625 -33.800781 21.9375 -34.546875 22.4375 -35.265625 C 22.9375 -35.992188 23.410156 -36.640625 23.859375 -37.203125 C 24.742188 -38.304688 25.910156 -38.640625 27.359375 -38.203125 C 28.796875 -37.867188 29.570312 -36.921875 29.6875 -35.359375 C 30.019531 -28.128906 30.601562 -22.316406 31.4375 -17.921875 C 32.269531 -13.535156 33.1875 -10.257812 34.1875 -8.09375 C 35.1875 -5.925781 36.128906 -4.453125 37.015625 -3.671875 C 37.910156 -2.890625 38.582031 -2.5 39.03125 -2.5 C 41.144531 -2.050781 44.535156 -4.21875 49.203125 -9 C 53.867188 -13.78125 59.316406 -22.625 65.546875 -35.53125 C 65.992188 -36.414062 66.632812 -37 67.46875 -37.28125 C 68.300781 -37.5625 69.109375 -37.476562 69.890625 -37.03125 Z M 69.890625 -37.03125 "/></g></g></g><g fill="#000000" fill-opacity="1"><g transform="translate(200.285834, 205.658137)"><g><path d="M 71.890625 -37.53125 C 72.554688 -37.082031 73 -36.410156 73.21875 -35.515625 C 73.445312 -34.628906 73.335938 -33.851562 72.890625 -33.1875 C 70.109375 -28.632812 66.519531 -23.851562 62.125 -18.84375 C 57.738281 -13.84375 53.039062 -9.144531 48.03125 -4.75 C 43.03125 -0.363281 38.023438 3.21875 33.015625 6 C 28.015625 8.78125 23.515625 10.171875 19.515625 10.171875 C 18.628906 10.171875 17.796875 10.117188 17.015625 10.015625 C 15.234375 9.671875 13.34375 8.691406 11.34375 7.078125 C 9.34375 5.472656 7.953125 2.613281 7.171875 -1.5 C 6.953125 -2.613281 7.226562 -3.613281 8 -4.5 C 8.78125 -5.394531 10.003906 -6.5625 11.671875 -8 C 13.003906 -9.113281 14.476562 -10.445312 16.09375 -12 C 17.707031 -13.5625 19.238281 -15.234375 20.6875 -17.015625 C 22.90625 -20.015625 24.347656 -22.765625 25.015625 -25.265625 C 25.679688 -27.765625 25.90625 -29.519531 25.6875 -30.53125 C 25.132812 -30.300781 24.019531 -29.460938 22.34375 -28.015625 C 20.675781 -26.578125 18.453125 -23.6875 15.671875 -19.34375 C 12.335938 -14.34375 9.363281 -8.753906 6.75 -2.578125 C 4.132812 3.585938 1.71875 9.894531 -0.5 16.34375 C -2.726562 22.789062 -4.726562 28.960938 -6.5 34.859375 L -7.34375 37.203125 C -7.78125 38.640625 -8.78125 39.359375 -10.34375 39.359375 C -10.5625 39.359375 -10.726562 39.359375 -10.84375 39.359375 C -12.726562 39.023438 -13.617188 37.914062 -13.515625 36.03125 C -13.515625 35.132812 -13.097656 32.601562 -12.265625 28.4375 C -11.429688 24.269531 -10.316406 18.929688 -8.921875 12.421875 C -7.535156 5.921875 -5.976562 -1.300781 -4.25 -9.25 C -2.53125 -17.207031 -0.695312 -25.382812 1.25 -33.78125 C 3.195312 -42.175781 5.085938 -50.40625 6.921875 -58.46875 C 8.753906 -66.53125 10.453125 -73.953125 12.015625 -80.734375 C 12.117188 -80.953125 12.171875 -81.226562 12.171875 -81.5625 C 14.171875 -89.90625 15.726562 -96.410156 16.84375 -101.078125 C 19.40625 -111.304688 22.242188 -120.617188 25.359375 -129.015625 C 28.472656 -137.410156 31.554688 -144.140625 34.609375 -149.203125 C 37.671875 -154.265625 40.421875 -157.070312 42.859375 -157.625 C 44.640625 -157.957031 46.085938 -157.34375 47.203125 -155.78125 C 48.753906 -153.675781 48.613281 -149.117188 46.78125 -142.109375 C 44.945312 -135.109375 41.582031 -126.210938 36.6875 -115.421875 C 31.800781 -104.640625 25.6875 -92.578125 18.34375 -79.234375 C 16.675781 -72.335938 14.894531 -64.800781 13 -56.625 C 11.113281 -48.457031 9.222656 -40.144531 7.328125 -31.6875 C 5.441406 -23.238281 3.664062 -15.175781 2 -7.5 C 3.226562 -10.175781 4.535156 -12.816406 5.921875 -15.421875 C 7.304688 -18.035156 8.722656 -20.507812 10.171875 -22.84375 C 16.515625 -32.632812 21.960938 -37.363281 26.515625 -37.03125 C 28.859375 -36.8125 30.472656 -35.585938 31.359375 -33.359375 C 32.472656 -31.023438 32.472656 -27.9375 31.359375 -24.09375 C 30.242188 -20.257812 28.351562 -16.566406 25.6875 -13.015625 C 24.132812 -11.015625 22.46875 -9.175781 20.6875 -7.5 C 18.90625 -5.832031 17.289062 -4.390625 15.84375 -3.171875 C 15.507812 -2.835938 15.144531 -2.503906 14.75 -2.171875 C 14.363281 -1.835938 14.0625 -1.554688 13.84375 -1.328125 C 14.289062 0.554688 14.957031 1.832031 15.84375 2.5 C 16.738281 3.164062 17.519531 3.554688 18.1875 3.671875 C 20.625 4.117188 23.875 3.367188 27.9375 1.421875 C 32 -0.523438 36.390625 -3.390625 41.109375 -7.171875 C 45.835938 -10.953125 50.535156 -15.367188 55.203125 -20.421875 C 59.878906 -25.484375 63.941406 -30.851562 67.390625 -36.53125 C 67.828125 -37.3125 68.488281 -37.785156 69.375 -37.953125 C 70.269531 -38.117188 71.109375 -37.976562 71.890625 -37.53125 Z M 41.53125 -148.28125 C 39.644531 -145.5 37.113281 -140.578125 33.9375 -133.515625 C 30.769531 -126.453125 27.628906 -116.863281 24.515625 -104.75 C 30.078125 -115.976562 34.164062 -125.207031 36.78125 -132.4375 C 39.394531 -139.664062 40.976562 -144.945312 41.53125 -148.28125 Z M 41.53125 -148.28125 "/></g></g></g><g fill="#000000" fill-opacity="1"><g transform="translate(265.333444, 205.658137)"><g><path d="M 69.890625 -37.03125 C 70.671875 -36.695312 71.195312 -36.113281 71.46875 -35.28125 C 71.75 -34.445312 71.722656 -33.640625 71.390625 -32.859375 C 69.273438 -28.523438 66.96875 -24.1875 64.46875 -19.84375 C 61.96875 -15.507812 59.351562 -11.535156 56.625 -7.921875 C 53.90625 -4.304688 51.097656 -1.414062 48.203125 0.75 C 45.316406 2.914062 42.425781 4 39.53125 4 C 38.976562 4 38.367188 3.945312 37.703125 3.84375 C 30.242188 2.394531 25.628906 -7.613281 23.859375 -26.1875 C 21.960938 -23.625 19.765625 -20.757812 17.265625 -17.59375 C 14.765625 -14.425781 12.125 -11.285156 9.34375 -8.171875 C 8.894531 -7.722656 8.171875 -7.023438 7.171875 -6.078125 C 6.171875 -5.140625 5.003906 -4.390625 3.671875 -3.828125 C 2.335938 -3.273438 1.003906 -3.332031 -0.328125 -4 C -3.003906 -5 -4.285156 -7.890625 -4.171875 -12.671875 C -4.171875 -15.453125 -3.640625 -18.898438 -2.578125 -23.015625 C -1.523438 -27.128906 -0.0234375 -31.269531 1.921875 -35.4375 C 3.867188 -39.613281 6.144531 -43.3125 8.75 -46.53125 C 11.363281 -49.757812 14.285156 -51.929688 17.515625 -53.046875 C 19.515625 -53.816406 21.957031 -53.953125 24.84375 -53.453125 C 27.738281 -52.953125 30.742188 -50.867188 33.859375 -47.203125 C 34.410156 -46.535156 34.660156 -45.753906 34.609375 -44.859375 C 34.554688 -43.972656 34.195312 -43.253906 33.53125 -42.703125 C 32.863281 -42.140625 32.082031 -41.882812 31.1875 -41.9375 C 30.300781 -42 29.578125 -42.363281 29.015625 -43.03125 C 26.347656 -46.144531 24.039062 -47.617188 22.09375 -47.453125 C 20.15625 -47.285156 18.519531 -46.703125 17.1875 -45.703125 C 14.738281 -43.921875 12.507812 -41.363281 10.5 -38.03125 C 8.5 -34.695312 6.832031 -31.191406 5.5 -27.515625 C 4.164062 -23.847656 3.21875 -20.429688 2.65625 -17.265625 C 2.101562 -14.097656 1.941406 -11.789062 2.171875 -10.34375 C 2.503906 -10.5625 2.863281 -10.835938 3.25 -11.171875 C 3.644531 -11.503906 4.0625 -11.953125 4.5 -12.515625 C 7.832031 -16.179688 10.890625 -19.820312 13.671875 -23.4375 C 16.453125 -27.050781 18.84375 -30.25 20.84375 -33.03125 C 21.40625 -33.800781 21.9375 -34.546875 22.4375 -35.265625 C 22.9375 -35.992188 23.410156 -36.640625 23.859375 -37.203125 C 24.742188 -38.304688 25.910156 -38.640625 27.359375 -38.203125 C 28.796875 -37.867188 29.570312 -36.921875 29.6875 -35.359375 C 30.019531 -28.128906 30.601562 -22.316406 31.4375 -17.921875 C 32.269531 -13.535156 33.1875 -10.257812 34.1875 -8.09375 C 35.1875 -5.925781 36.128906 -4.453125 37.015625 -3.671875 C 37.910156 -2.890625 38.582031 -2.5 39.03125 -2.5 C 41.144531 -2.050781 44.535156 -4.21875 49.203125 -9 C 53.867188 -13.78125 59.316406 -22.625 65.546875 -35.53125 C 65.992188 -36.414062 66.632812 -37 67.46875 -37.28125 C 68.300781 -37.5625 69.109375 -37.476562 69.890625 -37.03125 Z M 69.890625 -37.03125 "/></g></g></g></svg>